<svg width="28" height="28" xmlns="http://www.w3.org/2000/svg" xmlns:xlink="http://www.w3.org/1999/xlink" overflow="hidden"><defs><clipPath id="clip0"><rect x="397" y="119" width="28" height="28"/></clipPath></defs><g clip-path="url(#clip0)" transform="translate(-397 -119)"><path d="M408.521 132.008C408.521 133.458 407.346 134.633 405.896 134.633 404.446 134.633 403.271 133.458 403.271 132.008 403.271 130.559 404.446 129.383 405.896 129.383 407.346 129.383 408.521 130.559 408.521 132.008Z" fill="#FFFFFF"/><path d="M418.146 144.667 418.146 142.042C418.157 141.626 417.96 141.232 417.621 140.992 416.865 140.4 415.989 139.982 415.054 139.767 414.353 139.556 413.628 139.438 412.896 139.417 412.162 139.419 411.434 139.537 410.737 139.767 409.816 140.019 408.947 140.434 408.171 140.992 407.842 141.241 407.648 141.629 407.646 142.042L407.646 144.667Z" fill="#FFFFFF"/><path d="M415.521 136.092C415.521 137.541 414.346 138.717 412.896 138.717 411.446 138.717 410.271 137.541 410.271 136.092 410.271 134.642 411.446 133.467 412.896 133.467 414.346 133.467 415.521 134.642 415.521 136.092Z" fill="#FFFFFF"/><path d="M407.471 140.058 407.471 140.058C408.29 139.474 409.195 139.021 410.154 138.717 409.491 138.025 409.115 137.108 409.104 136.15L409.104 136.033C408.763 135.891 408.412 135.774 408.054 135.683 407.353 135.473 406.628 135.355 405.896 135.333 405.162 135.336 404.434 135.454 403.737 135.683 402.825 135.96 401.96 136.373 401.171 136.908 400.832 137.149 400.635 137.543 400.646 137.958L400.646 140.583 406.946 140.583C407.09 140.38 407.268 140.203 407.471 140.058Z" fill="#FFFFFF"/><path d="M420.727 121.333 409.711 121.333C409.374 121.337 409.103 121.612 409.104 121.949L409.104 129.459C409.098 129.797 409.367 130.077 409.705 130.083 409.707 130.083 409.709 130.083 409.711 130.083L411.461 130.083 411.461 132.545 413.879 130.083 420.727 130.083C421.065 130.08 421.337 129.806 421.337 129.468L421.337 121.949C421.337 121.611 421.065 121.337 420.727 121.333ZM415.168 128.99C414.81 128.99 414.52 128.7 414.52 128.342 414.521 127.984 414.81 127.695 415.168 127.695 415.522 127.695 415.811 127.979 415.815 128.333 415.822 128.689 415.539 128.983 415.183 128.99 415.178 128.99 415.173 128.99 415.168 128.99ZM415.585 126.321 415.585 127.24 414.754 127.24 414.754 125.522 415.168 125.522C415.891 125.522 416.358 125.099 416.358 124.448 416.369 123.804 415.856 123.273 415.212 123.261 415.197 123.261 415.183 123.261 415.168 123.261 414.568 123.206 414.037 123.647 413.981 124.246 413.975 124.314 413.975 124.381 413.981 124.448L413.981 124.521 413.15 124.521 413.15 124.448C413.087 123.395 413.889 122.49 414.943 122.427 415.018 122.423 415.093 122.423 415.168 122.427 416.271 122.414 417.176 123.298 417.189 124.401 417.189 124.417 417.189 124.433 417.189 124.448 417.217 125.393 416.523 126.204 415.585 126.321Z" fill="#FFFFFF"/></g></svg>